# xmcd
#
# Track frame offsets:
#	150
#	11895
#	24152
#	37060
#	49760
#	61540
#	74597
#	85412
#	98827
#	111455
#	123252
#	135695
#	147422
#	159420
#	172657
#	185430
#	198845
#	210647
#	222750
#	234750
#	247525
#
# Disc length: 3474 seconds
#
# Revision: 0
# Processed by: cddbd v1.5.1PL0 Copyright (c) Steve Scherf et al.
# Submitted via: audiograbber 1.83.01
#
DISCID=180d9015
DTITLE=Bob Nelson (Eduardo Araúcho) - Vaqueiro Alegre
DYEAR=1900
DGENRE=MPB
TTITLE0=Ó Suzana
TTITLE1=Meu cavalo pangaré
TTITLE2=Eu tiro o leite
TTITLE3=Burro teimoso
TTITLE4=Saudade do povoado
TTITLE5=Santa Fé
TTITLE6=Okey Johnny
TTITLE7=Cri-cri
TTITLE8=Vaqueiro do oeste
TTITLE9=Um samba na Suíça
TTITLE10=Índio de paletó
TTITLE11=A valsa do vaqueiro
TTITLE12=Não sou de briga
TTITLE13=Califórnia em festa
TTITLE14=Alô Xerife
TTITLE15=Minha linda Salomé
TTITLE16=O boi barnabé
TTITLE17=Vaqueiro no samba
TTITLE18=Vaqueiro apaixonado
TTITLE19=Um vaqueiro na cidade
TTITLE20=Vaqueiro alegre
EXTD=
EXTT0=
EXTT1=
EXTT2=
EXTT3=
EXTT4=
EXTT5=
EXTT6=
EXTT7=
EXTT8=
EXTT9=
EXTT10=
EXTT11=
EXTT12=
EXTT13=
EXTT14=
EXTT15=
EXTT16=
EXTT17=
EXTT18=
EXTT19=
EXTT20=
PLAYORDER=
